<svg xmlns="http://www.w3.org/2000/svg" width="100.498" height="60" viewBox="0 0 100.498 60">
  <g id="Group_240" data-name="Group 240" transform="translate(-1056.307 -506.652)">
    <path id="Path_236" data-name="Path 236" d="M1065.763,506.652h81.585a9.482,9.482,0,0,1,9.457,9.457V557.2a9.482,9.482,0,0,1-9.456,9.457h-81.586a9.48,9.48,0,0,1-9.456-9.457V516.109a9.48,9.48,0,0,1,9.457-9.457Zm81.585,3.259h-81.585a6.221,6.221,0,0,0-6.2,6.2V557.2a6.221,6.221,0,0,0,6.2,6.2h81.585a6.221,6.221,0,0,0,6.2-6.2V516.109a6.221,6.221,0,0,0-6.2-6.2Z"/>
    <path id="Path_237" data-name="Path 237" d="M1122.185,547.464v-1.955a4.533,4.533,0,0,0,.782.044,1.958,1.958,0,0,0,2.09-1.676c0-.022.212-.715.212-.726l-4.246-11.768h2.615l2.973,9.566h.044l2.973-9.566h2.548l-4.4,12.371c-1.005,2.85-2.167,3.766-4.6,3.766a9.487,9.487,0,0,1-.984-.055Zm-31.566-18.877a1.583,1.583,0,1,0-1.679-1.466,3.678,3.678,0,0,0-.927,2.7,3.255,3.255,0,0,0,2.607-1.229Zm.894,1.422c-1.44-.086-2.664.817-3.352.817s-1.74-.774-2.879-.753a4.245,4.245,0,0,0-3.609,2.193c-1.547,2.666-.409,6.621,1.1,8.792.73,1.075,1.611,2.257,2.771,2.215,1.1-.043,1.526-.709,2.858-.709s1.718.709,2.878.688c1.2-.022,1.956-1.075,2.686-2.15a9.55,9.55,0,0,0,1.2-2.472,3.905,3.905,0,0,1-2.341-3.548,3.977,3.977,0,0,1,1.89-3.332,4.113,4.113,0,0,0-3.2-1.74Zm12.535-3a5.06,5.06,0,0,1,5.308,5.3,5.116,5.116,0,0,1-5.386,5.32h-3.465v5.509H1098V527.013Zm-3.543,8.516h2.872c2.18,0,3.42-1.173,3.42-3.208s-1.24-3.2-3.408-3.2h-2.883v6.4Zm9.505,4.269c0-2.057,1.576-3.319,4.37-3.476l3.218-.19v-.905c0-1.308-.883-2.09-2.357-2.09a2.252,2.252,0,0,0-2.482,1.721h-2.279c.134-2.124,1.944-3.688,4.85-3.688,2.849,0,4.671,1.509,4.671,3.867v8.1h-2.313v-1.933h-.056a4.2,4.2,0,0,1-3.71,2.134c-2.3,0-3.912-1.43-3.912-3.542Zm7.588-1.062v-.927l-2.894.178c-1.442.1-2.257.738-2.257,1.744,0,1.028.849,1.7,2.146,1.7A2.817,2.817,0,0,0,1117.6,538.736Z" fill-rule="evenodd"/>
  </g>
</svg>
