<svg xmlns="http://www.w3.org/2000/svg" width="300" height="500" viewBox="0 0 300 500"><g transform="translate(-692 -758)"><rect width="300" height="500" transform="translate(692 758)" fill="none"/><path d="M41,4V23H212V4Zm85.5,19L79,70.5h95ZM22,89.5V213H3v19H250V213H231V89.5H212V213H193V89.5H174V213H155V89.5Zm37.164,19h58.672A14.2,14.2,0,0,0,136,126.664V213h-9.5a38,38,0,0,0-76,0H41V126.664A14.2,14.2,0,0,0,59.164,108.5ZM88.5,132.25a14.25,14.25,0,1,0,14.25,14.25A14.255,14.255,0,0,0,88.5,132.25Zm0,61.75a18.851,18.851,0,0,1,19,19h-38A18.851,18.851,0,0,1,88.5,194Z" transform="translate(716 890)"/></g></svg>