<svg xmlns="http://www.w3.org/2000/svg" width="300" height="500" viewBox="0 0 300 500"><g transform="translate(-280 -758)"><rect width="300" height="500" transform="translate(280 758)" fill="none"/><g transform="translate(-769.6 -254)"><g transform="translate(1112.6 1052)"><path d="M198.423,45.386h-5.262V64.132h4.275V77.945H51.413V64.132h4.275V45.386H50.426A12.842,12.842,0,0,0,37.6,58.212V288.758a12.842,12.842,0,0,0,12.826,12.826h148a12.842,12.842,0,0,0,12.826-12.826V58.541A12.713,12.713,0,0,0,198.423,45.386ZM92.523,277.9a4.5,4.5,0,0,1-4.6,4.6H60.293a4.5,4.5,0,0,1-4.6-4.6V250.279a4.5,4.5,0,0,1,4.6-4.6H87.919a4.5,4.5,0,0,1,4.6,4.6Zm0-59.528a4.5,4.5,0,0,1-4.6,4.6H60.293a4.5,4.5,0,0,1-4.6-4.6V190.751a4.5,4.5,0,0,1,4.6-4.6H87.919a4.5,4.5,0,0,1,4.6,4.6ZM142.842,277.9a4.5,4.5,0,0,1-4.6,4.6H110.612a4.5,4.5,0,0,1-4.6-4.6V250.279a4.5,4.5,0,0,1,4.6-4.6h27.626a4.5,4.5,0,0,1,4.6,4.6Zm0-59.528a4.5,4.5,0,0,1-4.6,4.6H110.612a4.5,4.5,0,0,1-4.6-4.6V190.751a4.5,4.5,0,0,1,4.6-4.6h27.626a4.5,4.5,0,0,1,4.6,4.6ZM193.161,277.9a4.5,4.5,0,0,1-4.6,4.6H160.931a4.5,4.5,0,0,1-4.6-4.6V250.279a4.5,4.5,0,0,1,4.6-4.6h27.626a4.5,4.5,0,0,1,4.6,4.6Zm0-59.528a4.5,4.5,0,0,1-4.6,4.6H160.931a4.5,4.5,0,0,1-4.6-4.6V190.751a4.5,4.5,0,0,1,4.6-4.6h27.626a4.5,4.5,0,0,1,4.6,4.6Zm4.275-59.856a5.058,5.058,0,0,1-4.933,4.933H56.346a5.058,5.058,0,0,1-4.933-4.933v-59.2a5.058,5.058,0,0,1,4.933-4.933H192.832a5.058,5.058,0,0,1,4.933,4.933v59.2ZM64.9,313.753h64.132V420.968H74.106A9.411,9.411,0,0,1,64.9,411.76Zm119.055,0H160.931V420.968h13.813a9.411,9.411,0,0,0,9.209-9.209Zm2.3-245.017H62.595V0L73.777,9.209,85.288,0,97.456,9.209,108.31,0l12.826,9.209L131.66,0l11.182,9.209L154.682,0l14.142,9.209L186.254,0Z" transform="translate(-37.6)"/></g></g></g></svg>