<svg xmlns="http://www.w3.org/2000/svg" width="112.147" height="39.6" viewBox="0 0 112.147 39.6">
  <g id="Group_241" data-name="Group 241" transform="translate(-904.06 -516.852)">
    <path id="Path_238" data-name="Path 238" d="M942.165,532.812v14.875h6.878V532.812h2.99v-4.934h-2.99v-5.906h-6.878v5.906h-7.213V524.72c0-1.645.486-2.5,1.887-2.5a4.939,4.939,0,0,1,1.607.374v-5.363a14.777,14.777,0,0,0-2.859-.374c-4.99,0-7.512,2.336-7.512,6.933v4.056h-2.991v4.933h2.991V547.65h6.877V532.793h7.213Z"/>
    <path id="Path_239" data-name="Path 239" d="M998.641,546.043a16.723,16.723,0,0,0,9.045,2.41c5.27,0,8.521-2.8,8.521-6.783,0-3.159-1.85-4.878-5.625-6-2.766-.86-4.541-.916-4.541-2.28,0-.916.785-1.458,2.411-1.458a10.217,10.217,0,0,1,5.718,1.925l1.458-4.84a19.14,19.14,0,0,0-7.9-1.794c-5.177,0-8.036,2.747-8.036,6.354,0,3.009,1.888,4.8,6,5.9,2.616.673,4.224.673,4.224,2.336,0,1.028-.916,1.645-2.71,1.645a10.947,10.947,0,0,1-7.064-2.766Z"/>
    <path id="Path_240" data-name="Path 240" d="M998.547,537.82a10.615,10.615,0,1,1-10.615-10.615A10.6,10.6,0,0,1,998.547,537.82Zm-10.615-4.766a4.766,4.766,0,1,0,4.747,4.785A4.762,4.762,0,0,0,987.932,533.054Z"/>
    <path id="Path_241" data-name="Path 241" d="M953.6,556.452h6.672v-7.326a26.288,26.288,0,0,0-.187-3.476c1.757,2.99,5.868,2.8,6,2.8a10.615,10.615,0,0,0-.037-21.21,7.74,7.74,0,0,0-6.018,2.41V527.9H953.6v28.555Zm16.371-18.632a5.046,5.046,0,1,1-5.046-5.046A5.025,5.025,0,0,1,969.973,537.82Z"/>
    <path id="Path_242" data-name="Path 242" d="M918.824,535.241h-8.3a4.276,4.276,0,0,1,8.485,0m6.148,3.924c.486-7.606-4.691-11.922-10.353-11.922-6.578,0-10.746,4.784-10.746,10.764a10.519,10.519,0,0,0,10.746,10.428,10.41,10.41,0,0,0,9.1-5.139l-5.139-2.336a4.13,4.13,0,0,1-3.962,2.242,4.37,4.37,0,0,1-4.541-4.055h14.894Z"/>
    <path id="Path_243" data-name="Path 243" d="M942.165,532.812v14.875h6.878V532.812h2.99v-4.934h-2.99v-5.906h-6.878v5.906h-7.213V524.72c0-1.645.486-2.5,1.887-2.5a4.939,4.939,0,0,1,1.607.374v-5.363a14.777,14.777,0,0,0-2.859-.374c-4.99,0-7.512,2.336-7.512,6.933v4.056h-2.991v4.933h2.991V547.65h6.877V532.793h7.213Z"/>
  </g>
</svg>
