<svg xmlns="http://www.w3.org/2000/svg" width="200" height="200" viewBox="0 0 200 200">
  <g id="Group_314" data-name="Group 314" transform="translate(-1283 1024)">
    <rect id="Rectangle_265" data-name="Rectangle 265" width="200" height="200" transform="translate(1283 -1024)" fill="none"/>
    <g id="Having_here" transform="translate(1304 -1005)">
      <g id="Group_20" data-name="Group 20" transform="translate(110.009)">
        <path id="Path_65" data-name="Path 65" d="M96.947,110.227H63.531a6.73,6.73,0,0,1-6.741-6.664c0-1.065,0-2.208.019-3.409.271-12.01,2.518-13.153,2.634-22.161C59.56,69.1,57.41,67.92,57,54.709c-.136-4.223-.019-7.671.077-9.9H103.4a79.24,79.24,0,0,1,.407,10c-.252,11.894-2.983,13.56-2.944,22.8.039,7.826,2.015,8.562,2.634,19.8.116,2.228.155,4.3.155,6.16a6.734,6.734,0,0,1-6.741,6.683Z" transform="translate(-56.79 41.993)" fill="#876a55"/>
        <path id="Path_66" data-name="Path 66" d="M88.46,44.81H79.239a79.241,79.241,0,0,1,.407,10c-.252,11.894-2.983,13.56-2.944,22.8.039,7.826,2.015,8.562,2.634,19.8.116,2.228.155,4.3.155,6.16a6.734,6.734,0,0,1-6.741,6.683h9.221a6.734,6.734,0,0,0,6.741-6.683c0-1.86-.019-3.932-.155-6.16-.62-11.235-2.6-11.971-2.634-19.8-.058-9.24,2.673-10.906,2.944-22.8a79.243,79.243,0,0,0-.407-10Z" transform="translate(-41.833 41.993)" fill="#715346"/>
        <path id="Path_67" data-name="Path 67" d="M90.322,3.97c-.407,11.216,2.17,19.759,4.688,24.6,2.266,4.339,5.482,8.523,6.935,15.826a36.255,36.255,0,0,1,.523,10.228h-45.1A36.232,36.232,0,0,1,57.895,44.4c1.433-7.3,4.668-11.468,6.935-15.826,2.518-4.823,5.095-13.386,4.688-24.6" transform="translate(-56.384 3.72)" fill="#876a55"/>
        <path id="Path_68" data-name="Path 68" d="M96.006,44.388c-1.433-7.3-4.668-11.468-6.935-15.826-2.5-4.823-5.095-13.386-4.688-24.6H63.559c.058,1.821.058,3.564-.019,5.25A11.6,11.6,0,0,1,75.027,19.3,44.5,44.5,0,0,0,79.25,33.811c2.266,4.339,5.482,8.523,6.935,15.826a35.483,35.483,0,0,1,.62,5h9.724a36.231,36.231,0,0,0-.523-10.228Z" transform="translate(-50.464 3.711)" fill="#715346"/>
        <path id="Path_69" data-name="Path 69" d="M83.676,8.736H66.649a4.368,4.368,0,0,1,0-8.736H83.676a4.368,4.368,0,0,1,0,8.736Z" transform="translate(-51.636)" fill="#fee172"/>
        <path id="Path_70" data-name="Path 70" d="M77.566,0H68.81a4.368,4.368,0,1,1,0,8.736h8.756a4.368,4.368,0,1,0,0-8.736Z" transform="translate(-45.526)" fill="#f9c75a"/>
        <path id="Path_71" data-name="Path 71" d="M101.515,60.608H58.743a1.769,1.769,0,0,1-1.763-1.763V31.513a1.769,1.769,0,0,1,1.763-1.763h42.772a1.769,1.769,0,0,1,1.763,1.763V58.846A1.769,1.769,0,0,1,101.515,60.608Z" transform="translate(-56.612 27.88)" fill="#e55145"/>
        <path id="Path_72" data-name="Path 72" d="M84.159,29.74H75.5A1.769,1.769,0,0,1,77.263,31.5V58.836A1.769,1.769,0,0,1,75.5,60.6h8.659a1.769,1.769,0,0,0,1.763-1.763V31.5A1.769,1.769,0,0,0,84.159,29.74Z" transform="translate(-39.256 27.87)" fill="#c53930"/>
        <g id="Group_19" data-name="Group 19" transform="translate(4.9 67.16)">
          <path id="Path_73" data-name="Path 73" d="M77.107,40.21h.252a1.043,1.043,0,0,1,.213.019.194.194,0,0,1,.116.194.176.176,0,0,1-.077.155.275.275,0,0,1-.116.039.2.2,0,0,1,.136.077.275.275,0,0,1,.039.116v.155h-.116v-.077s-.019-.136-.077-.174a1.093,1.093,0,0,0-.136-.019h-.1v.291h-.136v-.736h0Zm.446.232s0-.1-.058-.116a.3.3,0,0,0-.155-.039h-.116v.271h.232a.131.131,0,0,0,.077-.116h0Zm.5.136a.643.643,0,0,1-.194.484.557.557,0,0,1-.484.194.764.764,0,0,1-.484-.194.7.7,0,0,1,0-.969.615.615,0,0,1,.484-.194.724.724,0,0,1,.484.194A.643.643,0,0,1,78.056,40.578ZM77.378,40a.6.6,0,0,0-.581.581.569.569,0,0,0,.174.426.562.562,0,0,0,.814,0,.57.57,0,0,0,.174-.426.528.528,0,0,0-.174-.407A.558.558,0,0,0,77.378,40Z" transform="translate(-43.032 -29.769)" fill="#fff" fill-rule="evenodd"/>
          <path id="Path_74" data-name="Path 74" d="M93.549,45.421h.194c.039,0,.058-.039.058-.077s0-.077-.039-.077a.688.688,0,0,0-.136-.019h-.077v.213h0Zm.077.058h-.155V45.15h.136s.136,0,.174.039c.019,0,.058.058.058.136a.146.146,0,0,1-.1.136h-.136Zm.232.329h.058v-.116a.151.151,0,0,0-.039-.1.107.107,0,0,0-.1-.058v-.058a.327.327,0,0,0,.1-.039.117.117,0,0,0,.058-.116.153.153,0,0,0-.1-.155c-.039,0-.1-.019-.194-.019h-.232v.678h.077v-.291h.136s.136,0,.155.039c.058.019.077.1.077.194v.077h0Zm.155.058H93.8V45.75s0-.116-.058-.136a.335.335,0,0,0-.136-.019H93.53v.291h-.194v-.814h.291a.6.6,0,0,1,.213.019.209.209,0,0,1,.136.213.2.2,0,0,1-.1.174h-.019c.019,0,.039.039.058.058a.209.209,0,0,1,.039.136v.136h0l.039.058h0Zm-.368-.949a.541.541,0,0,0-.387.155.576.576,0,0,0-.155.387.625.625,0,0,0,.155.407.562.562,0,0,0,.775,0,.586.586,0,0,0,0-.794.5.5,0,0,0-.387-.155Zm0,1.182a.57.57,0,0,1-.426-.174.647.647,0,0,1-.174-.446.57.57,0,0,1,.174-.426.6.6,0,0,1,.426-.174.57.57,0,0,1,.426.174.6.6,0,0,1,.174.426.647.647,0,0,1-.174.446.6.6,0,0,1-.426.174Zm0-1.279a.63.63,0,0,0-.465.194.676.676,0,0,0-.194.465.63.63,0,0,0,.194.465.574.574,0,0,0,.465.194.63.63,0,0,0,.465-.194.6.6,0,0,0,.194-.465.536.536,0,0,0-.194-.446.676.676,0,0,0-.465-.194h0Zm0,1.356a.728.728,0,1,1,.5-.213.7.7,0,0,1-.5.213Zm-8.272-10.6a4.846,4.846,0,0,0-1.511,1.182c-.814.891-1.279,1.9-.93,2.17.136.1.446.116,1.007-.387A4.2,4.2,0,0,0,85.123,36.9a2.232,2.232,0,0,0,.252-1.3Zm4.436,1.608c-.891-.465-1.55-1.027-2.247-1.375a2.58,2.58,0,0,0-1.608-.407.58.58,0,0,0-.213.058s.271.93-.814,2.5c-1.1,1.588-2.092,1.588-2.363,1.143-.291-.465.077-1.395.717-2.228a8.012,8.012,0,0,1,1.84-1.608s-.368-.232-1.3.291a12.946,12.946,0,0,0-3.874,3.777,10.539,10.539,0,0,0-1.918,4.049c-.213.891,0,1.84.969,1.84s2.111-1.492,2.441-2.015c.6-.969.988-2.46.174-2.247-.407.1-.717.542-.93.969a3.9,3.9,0,0,0-.291.852,3.347,3.347,0,0,0-.794.465,7.46,7.46,0,0,0-.755.678,4.7,4.7,0,0,1,.562-1.86,3.049,3.049,0,0,1,2.17-1.724c.523-.039,1.22.407.639,2.053-.581,1.666-2.286,3.661-4.087,3.7-1.666.019-2.751-2.111-.446-5.831,2.557-4.107,5.56-5.366,6.528-5.5s1.3.291,1.3.291a4.05,4.05,0,0,1,1.86-.31c1.2.077,2.111.93,3.332,1.511-.31.291-.6.6-.891.93h0Zm5.346-1.395a5.053,5.053,0,0,1-3.061.91,10.591,10.591,0,0,0-.872.988,4.961,4.961,0,0,0,4.455-1.821,5.968,5.968,0,0,0,.833-1.2,7.243,7.243,0,0,1-1.337,1.1h0ZM92.62,41.179l.039-.077a.2.2,0,0,0-.174-.174c-.174,0-.426.019-1.085.755a9.61,9.61,0,0,0-1.375,1.956c-.368.678-.523,1.182-.31,1.317a.315.315,0,0,0,.232.019,1.406,1.406,0,0,0,.562-.465c.116-.136.252-.329.407-.542.426-.581,1.511-2.441,1.724-2.809h0Zm-6.741.794c.116-.291.252-.833-.039-1.065-.31-.232-1.085.31-1.1.872a.99.99,0,0,0,.678.872.111.111,0,0,0,.136-.039,6.815,6.815,0,0,0,.31-.639Zm-.6,1.046a2.367,2.367,0,0,1-.542-.349,1.391,1.391,0,0,1-.407-.484H84.29s-.058.058-.484.678-1.065,1.9-.484,2.111c.368.136.988-.523,1.337-.949a9.228,9.228,0,0,0,.62-.949v-.058h0Zm6.586,1.472c-.155.252-.329.736.194.446a7.214,7.214,0,0,0,1.53-1.743H94a14.033,14.033,0,0,1-1.24,1.627c-.639.717-1.433,1.375-1.976,1.3-.639-.077-.446-.93-.446-.93s-.93.988-1.569.91c-.852-.1-.6-1.162-.6-1.162s-.969,1.2-1.647,1.162c-1.046-.058-.775-1.337-.484-2.228.155-.484.291-.852.291-.852s-.1.019-.329.058a2.517,2.517,0,0,0-.329.039,13.191,13.191,0,0,1-.775,1.24c-.349.465-1.821,2.053-2.693,1.743-.794-.291-.542-1.53-.077-2.518.678-1.433,2.6-3.487,3.7-3.216,1.143.271.019,2.383.019,2.383h.213a2.1,2.1,0,0,0,.426-.136A25.594,25.594,0,0,1,88.9,38.6c1.279-1.588,3.816-4.32,4.823-3.661.252.155.136.717-.194,1.395-.136.039-.291.077-.446.116a3.859,3.859,0,0,0,.407-.969c.155-.814-1.763.91-3.119,2.77A25.726,25.726,0,0,0,88.2,41.8a5.743,5.743,0,0,0,.7-.5,19.816,19.816,0,0,0,1.724-1.627,20.4,20.4,0,0,0,1.472-1.7,3.167,3.167,0,0,0,.426-.039A16.083,16.083,0,0,1,90.9,39.861c-.542.542-1.124,1.143-1.647,1.569a17.473,17.473,0,0,1-1.433,1.085s-1.2,2.4-.542,2.557c.387.1,1.143-1.065,1.143-1.065s.988-1.511,1.569-2.189c.814-.93,1.511-1.453,2.189-1.472a.829.829,0,0,1,.639.426l.194-.291h1.182S92,44.2,91.825,44.491h0ZM78.672,37.653H77.549l-.62,1.027h1.1l.62-1.027ZM73.4,41.2c.465-.659,1.782-2.944,1.782-2.944a.2.2,0,0,0-.174-.174c-.174,0-.484.058-1.085.814a13.535,13.535,0,0,0-1.395,1.976c-.368.678-.542,1.162-.329,1.3a.315.315,0,0,0,.232.019A1.29,1.29,0,0,0,73,41.721q.174-.2.407-.523h0Zm-5.986-3.08c-.31-.232-1.085.31-1.1.872,0,.581.717.736.794.736a.113.113,0,0,0,.116-.039,5.063,5.063,0,0,0,.232-.5c.116-.291.252-.852-.039-1.065h0Zm-.465,1.976a3.152,3.152,0,0,1-.6-.271,1.183,1.183,0,0,1-.426-.484h-.039s-.077.1-.484.717c-.426.62-1.046,1.879-.465,2.092.368.136.988-.523,1.337-.949a12.033,12.033,0,0,0,.7-1.065c0-.039,0-.039-.019-.058Zm9.1.368h.407s-2.053,2.964-3.2,2.828c-.639-.077-.446-.872-.446-.872s-.91,1.065-1.743.852c-.755-.194-.271-1.453-.271-1.453-.077.039-1.724,1.879-2.867,1.433-1.2-.465-.581-2.015-.349-2.48C67.786,40.385,68,40,68,40s-.194.058-.291.077c-.116.019-.291.058-.291.058s-.562.93-.91,1.395-1.821,2.053-2.693,1.743-.659-1.53-.174-2.518c.794-1.569,2.673-3.506,3.8-3.216,1.143.291.194,2.15.194,2.15s.232.039.775-.349c.794-.542,1.821-1.976,2.944-1.821.523.077,1.027.62.349,1.647-.213.329-.581.62-.852.329-.174-.174-.019-.5.155-.736a.661.661,0,0,1,.6-.271.281.281,0,0,0-.291-.426c-.387,0-1.356.891-1.9,1.8-.5.833-1.259,2.247-.5,2.557.7.291,2.034-1.3,2.634-2.131.62-.833,2.015-2.712,3.2-2.789a.778.778,0,0,1,.639.349l.136-.213H76.7s-2.208,3.719-2.383,3.99c-.136.213-.31.717.194.446a9.2,9.2,0,0,0,1.55-1.627h0Zm-.639,5.947a4.947,4.947,0,0,0-2.964-.872,1.805,1.805,0,0,0-1.433.775,2.889,2.889,0,0,0-2.712-1.259c-2.208.019-4.417,1.046-6.141,1.046a2.64,2.64,0,0,1-2.848-2.925c.077-3.274,2.828-6.238,4.9-7.555a4.611,4.611,0,0,1,2.828-.91.952.952,0,0,1,.678,1.414c-.523,1.182-1.259,1.085-1.24.523a.838.838,0,0,1,.872-.833c.1-.1.194-.736-.659-.523a6.72,6.72,0,0,0-2.848,2.131,11.69,11.69,0,0,0-2.867,5.269c-.174.988-.058,2.809,2.286,2.789,2,0,4.94-1.337,7.632-1.317a5.04,5.04,0,0,1,2.673.736,7.644,7.644,0,0,1,1.84,1.492h0Z" transform="translate(-59.32 -34.67)" fill="#fff" fill-rule="evenodd"/>
        </g>
      </g>
      <g id="Group_28" data-name="Group 28" transform="translate(0 59.683)">
        <path id="Path_75" data-name="Path 75" d="M135.521,60.485a6.726,6.726,0,0,0-5.037-2.305H6.761a6.659,6.659,0,0,0-5.037,2.305A6.692,6.692,0,0,0,0,64.941v5.87a4.213,4.213,0,0,0,.019.5L4.262,96.477a12.449,12.449,0,0,0,12.32,10.4H120.664a12.464,12.464,0,0,0,12.32-10.4l4.242-25.163a2.236,2.236,0,0,0,.019-.5V64.941a6.617,6.617,0,0,0-1.724-4.455Z" transform="translate(0 -5.161)" fill="#d91f28"/>
        <g id="Group_21" data-name="Group 21" transform="translate(56.795 67.451)">
          <path id="Path_76" data-name="Path 76" d="M29.766,69.619a.443.443,0,0,0-.446.465,7.992,7.992,0,0,0,5.424,7.109,9.954,9.954,0,0,1-1.569-5.366,9.467,9.467,0,0,1,.252-2.228H29.786Z" transform="translate(-29.319 -61.91)" fill="#fff"/>
          <path id="Path_77" data-name="Path 77" d="M31.43,73.34H42.859a.443.443,0,0,1,.446.465,7.989,7.989,0,0,1-7.981,7.535,8.164,8.164,0,0,1-2.576-.426A9.924,9.924,0,1,0,31.43,73.32" transform="translate(-27.341 -65.63)" fill="#fff"/>
        </g>
        <g id="Group_27" data-name="Group 27" transform="translate(0.017)">
          <path id="Path_78" data-name="Path 78" d="M38.943,76.182s-8.058-19.333,11.8-36.4a3.523,3.523,0,0,1,5.288.581c1.259,1.8,2.673,3.971,4.765,4.92,2.654,1.22,7.865-1.3,10.848.7,2.538,1.7,2.208,7.38,4.765,9.763,2.344,2.189,7.807,1.22,9.55,3.429,2.053,2.576-.155,7.749,1.2,10.073,1.821,3.158,7.555,4.9,8.388,7.032l-56.622-.116Z" transform="translate(34.961 -23.278)" fill="#76c377"/>
          <path id="Path_79" data-name="Path 79" d="M66.6,72.555c-3.293-3.254-8.814.329-11.293-2.538-3.836-4.436,6.257-16.388,2.286-20.979-2.383-2.77-7.38,0-9.705-3.177-2.286-3.119,1.492-7.148-1.046-11.274-2.073-3.39-6.47-3.758-6.664-3.758a9.257,9.257,0,0,0-8.194,4.126c-2.15,3.351-.426,6.412-2.363,7.749-2.131,1.472-4.785-1.86-7.652-.93-4.8,1.569-7.458,14.083-2.557,22.509.465.814,1.3,2.092,5.656,5.928C31.6,75.965,36.421,80.226,43.531,83.6c.194.1.407.194.6.291H67.609c1.685-3.816,1.414-8.911-1.007-11.293Z" transform="translate(15.728 -30.81)" fill="#5cb57f"/>
          <path id="Path_80" data-name="Path 80" d="M60.779,76.57c2.015-4.785-1.182-12.223-5.54-13.56-4.436-1.356-7.652,4.378-11.2,2.983-5.463-2.15-2.053-17.415-7.71-19.642-3.39-1.337-6.528,3.429-10.073,1.685-3.467-1.7-2-7.012-6.16-9.511-3.409-2.053-7.477-.329-7.652-.252A9.264,9.264,0,0,0,7.1,45.731C6.752,49.7,9.7,51.6,8.592,53.693c-1.22,2.286-5.095.581-7.206,2.731-3.526,3.6-.1,15.943,8.155,21.115H60.256a7.964,7.964,0,0,0,.523-.988Z" transform="translate(-0.009 -24.519)" fill="#76c377"/>
          <g id="Group_22" data-name="Group 22" transform="translate(5.438 35.14)">
            <path id="Path_81" data-name="Path 81" d="M74.959,63.463,73.274,58.6A8.991,8.991,0,0,0,61.709,53.08L57.06,54.766l6.664,8.7H74.959Z" transform="translate(48.017 -45.584)" fill="#e55145"/>
            <path id="Path_82" data-name="Path 82" d="M17,55.438l-4.61-1.821a6.992,6.992,0,0,0-8.988,9.3H20.781a6.939,6.939,0,0,1-3.758-7.477Z" transform="translate(-2.816 -45.036)" fill="#9ed299"/>
            <path id="Path_83" data-name="Path 83" d="M19.659,51.837a6.994,6.994,0,0,0-9.085,3.932,6.7,6.7,0,0,0-.368,1.317,6.965,6.965,0,0,0,3.758,7.477H28.608a.994.994,0,0,1,.019-.194,21.651,21.651,0,0,1,2.906-7.865L19.659,51.8Z" transform="translate(4.001 -46.704)" fill="#e55145"/>
            <path id="Path_84" data-name="Path 84" d="M65.654,56.2l-1.278-1.666a8.973,8.973,0,0,0-12.708-1.569l-3.758,3a21.859,21.859,0,0,1,2.77,5.7c.077.271.155.523.232.794.213.814.387,1.627.523,2.46h20.9l-6.664-8.7Z" transform="translate(39.442 -47.016)" fill="#fee172"/>
            <path id="Path_85" data-name="Path 85" d="M19.64,58.274h.484l-.465-.194A.994.994,0,0,1,19.64,58.274Z" transform="translate(12.95 -40.394)" fill="#76c377"/>
            <path id="Path_86" data-name="Path 86" d="M77.376,64.37c-.077-.271-.155-.523-.232-.794a21.859,21.859,0,0,0-2.77-5.7,19.552,19.552,0,0,0-15.962-8.93H39.1c-6.935,0-13.017,4.068-16.543,9.821a21.651,21.651,0,0,0-2.906,7.865l.465.194H30.265a9.482,9.482,0,0,1,9.318-8H57.889a9.468,9.468,0,0,1,8.523,5.385,9.8,9.8,0,0,1,.814,2.615H77.88a17.934,17.934,0,0,0-.523-2.46Z" transform="translate(12.959 -48.95)" fill="#9ed299"/>
            <path id="Path_87" data-name="Path 87" d="M61.287,59.435a9.446,9.446,0,0,0-8.523-5.385H34.458a9.482,9.482,0,0,0-9.318,8H62.1a9.143,9.143,0,0,0-.814-2.615Z" transform="translate(18.104 -44.171)" fill="#fee172"/>
          </g>
          <g id="Group_26" data-name="Group 26" transform="translate(56.721 35.547)">
            <g id="Group_23" data-name="Group 23">
              <path id="Path_88" data-name="Path 88" d="M47.15,57.625a9.293,9.293,0,0,1,9.279,9.027h8.388a17.766,17.766,0,0,0-35.527,0h8.581A9.306,9.306,0,0,1,47.15,57.625Z" transform="translate(-29.29 -49.16)" fill="#e55145"/>
              <path id="Path_89" data-name="Path 89" d="M43,53.53a9.293,9.293,0,0,0-9.279,9.027H52.278A9.306,9.306,0,0,0,43,53.53Z" transform="translate(-25.139 -45.065)" fill="#f89a32"/>
            </g>
            <g id="Group_24" data-name="Group 24" transform="translate(17.88)">
              <path id="Path_90" data-name="Path 90" d="M56.206,57.625a9.293,9.293,0,0,1,9.279,9.027h8.581A17.769,17.769,0,0,0,56.3,49.16a17.12,17.12,0,0,0-2.654.194,17.8,17.8,0,0,0-15.129,17.3h8.388a9.306,9.306,0,0,1,9.279-9.027Z" transform="translate(-38.52 -49.16)" fill="#e55145"/>
              <path id="Path_91" data-name="Path 91" d="M52.139,53.53a9.293,9.293,0,0,0-9.279,9.027H61.418A9.306,9.306,0,0,0,52.139,53.53Z" transform="translate(-34.453 -45.065)" fill="#f89a32"/>
            </g>
            <g id="Group_25" data-name="Group 25" transform="translate(17.88 0.194)">
              <path id="Path_92" data-name="Path 92" d="M49.74,54.22c.116.31.213.62.31.949C49.953,54.859,49.837,54.53,49.74,54.22Z" transform="translate(-28.005 -44.612)" fill="#c74c3f"/>
              <path id="Path_93" data-name="Path 93" d="M50.1,55.39c.077.31.155.62.232.949C50.274,56.01,50.177,55.7,50.1,55.39Z" transform="translate(-27.668 -43.515)" fill="#c74c3f"/>
              <path id="Path_94" data-name="Path 94" d="M50.34,56.65c.039.291.1.562.116.852C50.417,57.212,50.379,56.941,50.34,56.65Z" transform="translate(-27.443 -42.335)" fill="#c74c3f"/>
              <path id="Path_95" data-name="Path 95" d="M56.206,57.532a9.492,9.492,0,0,1,3.855.833,23.2,23.2,0,0,0-6.412-9.1,17.8,17.8,0,0,0-15.129,17.3h8.388a9.306,9.306,0,0,1,9.279-9.027Z" transform="translate(-38.52 -49.26)" fill="#c74c3f"/>
              <path id="Path_96" data-name="Path 96" d="M49.9,54.71c.136.426.252.872.368,1.317C50.152,55.582,50.036,55.136,49.9,54.71Z" transform="translate(-27.856 -44.153)" fill="#f68c31"/>
              <path id="Path_97" data-name="Path 97" d="M49.669,53.96H49.63c.058.174.136.329.213.5a4.848,4.848,0,0,0-.174-.484Z" transform="translate(-28.109 -44.856)" fill="#f68c31"/>
              <path id="Path_98" data-name="Path 98" d="M50.21,55.88c.1.484.174.988.252,1.492C50.384,56.868,50.307,56.364,50.21,55.88Z" transform="translate(-27.565 -43.056)" fill="#f68c31"/>
              <path id="Path_99" data-name="Path 99" d="M50.526,59.2a19.019,19.019,0,0,0-.116-2.111,19.019,19.019,0,0,1,.116,2.111Z" transform="translate(-27.378 -41.922)" fill="#f68c31"/>
              <path id="Path_100" data-name="Path 100" d="M42.85,62.538H57.592a19.019,19.019,0,0,0-.116-2.111c-.039-.291-.077-.562-.116-.852-.077-.5-.155-1.007-.252-1.492-.058-.31-.155-.639-.232-.949-.116-.446-.232-.891-.368-1.317-.1-.31-.213-.639-.31-.949-.058-.174-.136-.329-.213-.5a9.184,9.184,0,0,0-3.855-.833,9.293,9.293,0,0,0-9.279,9.027Z" transform="translate(-34.462 -45.258)" fill="#f68c31"/>
            </g>
          </g>
        </g>
        <path id="Path_101" data-name="Path 101" d="M87.644,60.485a6.726,6.726,0,0,0-5.037-2.305h-21.7a6.851,6.851,0,0,1,6.761,6.761v5.87a4.213,4.213,0,0,1-.019.5L63.41,96.477a12.449,12.449,0,0,1-12.32,10.4h21.7a12.464,12.464,0,0,0,12.32-10.4l4.242-25.163a2.236,2.236,0,0,0,.019-.5V64.941a6.617,6.617,0,0,0-1.724-4.455Z" transform="translate(47.878 -5.161)" fill="#d7636e"/>
      </g>
    </g>
  </g>
</svg>
