<?xml version="1.0" encoding="UTF-8"?><svg id="Layer_1" xmlns="http://www.w3.org/2000/svg" viewBox="0 0 1199.69 932.09"><defs><style>.cls-1{fill:#d91f28;}</style></defs><path class="cls-1" d="M.06,138.5c12.73,225.24,163.26,413.95,368.57,483.68-69.84-108.6-106.92-235.02-106.81-364.14,.05-50.84,5.8-101.52,17.16-151.08H30.5C13.34,106.96-1.05,121.35,.06,138.5Z"/><path class="cls-1" d="M313.17,0c-14.24,34.31-25.73,70.05-34.19,106.96h776.43c17.71,0,31.54,14.39,30.44,31.54-16.6,285.56-252.91,512.46-542.9,512.46-59.3,.12-118.21-9.6-174.32-28.78,120.09,185.95,328.73,309.91,567.25,309.91,93.62,0,182.79-19.12,263.81-53.66V0H313.17Z"/></svg>