<svg xmlns="http://www.w3.org/2000/svg" width="93.487" height="60" viewBox="0 0 93.487 60">
  <g id="Group_244" data-name="Group 244" transform="translate(-772.24 -506.652)">
    <path id="Path_247" data-name="Path 247" d="M860.742,506.652H777.225a5.042,5.042,0,0,0-4.985,5.1v49.808a5.041,5.041,0,0,0,4.985,5.1h83.517a5.042,5.042,0,0,0,4.985-5.1V511.748A5.041,5.041,0,0,0,860.742,506.652Zm-26.205,55.96a25.037,25.037,0,0,1-15.556-5.427,25.019,25.019,0,0,1-15.553,5.427c-14.034,0-25.452-11.649-25.452-25.962s11.418-25.958,25.452-25.958a24.99,24.99,0,0,1,15.553,5.424,25,25,0,0,1,15.556-5.424c14.035,0,25.453,11.643,25.453,25.958S848.571,562.612,834.537,562.612Z"/>
    <path id="Path_248" data-name="Path 248" d="M798.461,538.311a4.543,4.543,0,0,0-.533-.036c-1.354,0-2.037.474-2.037,1.408a.844.844,0,0,0,.853.946C797.718,540.629,798.418,539.683,798.461,538.311Z"/>
    <path id="Path_249" data-name="Path 249" d="M838.252,538.311a4.507,4.507,0,0,0-.535-.036c-1.352,0-2.037.474-2.037,1.408a.845.845,0,0,0,.858.946c.972,0,1.674-.946,1.714-2.318Z"/>
    <path id="Path_250" data-name="Path 250" d="M817.892,536.731c.015-.191.251-1.659-1.1-1.659-.756,0-1.3.593-1.517,1.659Z"/>
    <path id="Path_251" data-name="Path 251" d="M849.907,540.3c1.111,0,1.9-1.289,1.9-3.124,0-1.18-.443-1.818-1.266-1.818-1.083,0-1.852,1.289-1.852,3.112,0,1.216.412,1.83,1.223,1.83Z"/>
    <path id="Path_252" data-name="Path 252" d="M834.458,513.02a22.7,22.7,0,0,0-13.763,4.641,26.113,26.113,0,0,1,7.3,12.485h-2.356a23.747,23.747,0,0,0-6.717-11,23.737,23.737,0,0,0-6.711,11h-2.359a26.134,26.134,0,0,1,7.3-12.485,22.711,22.711,0,0,0-13.765-4.641,23.665,23.665,0,0,0,0,47.319,22.711,22.711,0,0,0,13.765-4.641,26.148,26.148,0,0,1-7.067-11.634h2.382a23.7,23.7,0,0,0,6.452,10.151,23.671,23.671,0,0,0,6.458-10.151h2.382A26.186,26.186,0,0,1,820.7,555.7a22.7,22.7,0,0,0,13.763,4.641,23.665,23.665,0,0,0,0-47.319Zm-44.669,29.424,1.368-8.764-3.052,8.764h-1.628l-.2-8.712-1.436,8.712h-2.235l1.864-11.4H787.9l.1,7.058,2.316-7.058h3.706l-1.847,11.4Zm11.12-4.921c-.208,1.34-.652,4.218-.713,4.921h-1.979l.046-.962a2.967,2.967,0,0,1-2.5,1.123,2.26,2.26,0,0,1-2.179-2.531c0-2.261,1.539-3.576,4.187-3.576a7.793,7.793,0,0,1,.974.073,2.337,2.337,0,0,0,.092-.6c0-.612-.414-.843-1.53-.843a7.659,7.659,0,0,0-2.526.418c.025-.156.332-2.085.332-2.085a9.277,9.277,0,0,1,2.856-.493c2.049,0,3.135.939,3.132,2.718A12.461,12.461,0,0,1,800.909,537.523Zm6.465-2.225a12.834,12.834,0,0,0-1.712-.14c-.774,0-1.172.254-1.172.757,0,.433.117.537,1.116,1.008a2.534,2.534,0,0,1,1.682,2.583c0,2.116-1.162,3.1-3.68,3.1a10.962,10.962,0,0,1-2.486-.275l.329-2.142a6.538,6.538,0,0,0,2.139.363c.946,0,1.372-.259,1.372-.835,0-.423-.15-.557-1.116-1.024a2.7,2.7,0,0,1-1.816-2.59h0c-.01-1.714.913-3.138,3.583-3.138a16.06,16.06,0,0,1,2.1.182l-.34,2.152Zm4.989.1h-1.224c-.275,1.761-.668,3.955-.673,4.25,0,.48.251.687.819.687a1.938,1.938,0,0,0,.642-.088l-.314,2.054a5.465,5.465,0,0,1-1.718.3c-1.22,0-1.884-.718-1.884-2.039a22.521,22.521,0,0,1,.329-2.473c.135-.863,1.032-6.321,1.032-6.321h2.372l-.276,1.4h1.22l-.325,2.229Zm7.452,3.2h-4.723c-.16,1.34.683,1.9,2.063,1.9a5.514,5.514,0,0,0,2.465-.58l-.393,2.307a8.006,8.006,0,0,1-2.435.374c-2.659-.006-4.043-1.424-4.043-4.139,0-3.168,1.762-5.5,4.154-5.5a3.067,3.067,0,0,1,3.207,3.358,10.281,10.281,0,0,1-.295,2.282Zm5.3-2.8c-1.336-.14-1.542.967-2.4,6.638h-2.386l.109-.625c.413-2.873.946-5.78,1.245-8.648h2.191a8.563,8.563,0,0,1-.142,1.408c.729-1.1,1.291-1.677,2.288-1.464a9.356,9.356,0,0,0-.908,2.691Zm7.165,6.462a7.194,7.194,0,0,1-2.107.337c-2.569,0-4.171-1.893-4.171-4.921,0-4.077,2.212-6.924,5.376-6.924a8.154,8.154,0,0,1,2.622.591l-.391,2.474a4.455,4.455,0,0,0-2.133-.617c-1.782,0-3.029,1.761-3.029,4.273,0,1.73.838,2.777,2.225,2.777a4.565,4.565,0,0,0,2.027-.586l-.418,2.6Zm8.424-4.745c-.205,1.34-.651,4.218-.713,4.921h-1.975l.045-.962a2.979,2.979,0,0,1-2.5,1.123,2.264,2.264,0,0,1-2.181-2.531c0-2.261,1.545-3.576,4.19-3.576a7.822,7.822,0,0,1,.975.073,2.414,2.414,0,0,0,.091-.6c0-.612-.414-.843-1.528-.843a7.653,7.653,0,0,0-2.526.418c.023-.156.33-2.085.33-2.085a9.3,9.3,0,0,1,2.853-.493c2.052,0,3.139.939,3.136,2.718a12.222,12.222,0,0,1-.193,1.841Zm2.876,4.921h-2.384l.109-.625c.414-2.873.944-5.78,1.243-8.648h2.192a8.454,8.454,0,0,1-.14,1.408c.728-1.1,1.286-1.677,2.287-1.464a9.116,9.116,0,0,0-.908,2.691c-1.336-.14-1.544.967-2.4,6.638Zm7.6,0,.113-.864a2.8,2.8,0,0,1-2.2,1.025c-1.735,0-2.882-1.528-2.882-3.845,0-3.089,1.778-5.687,3.883-5.687a2.678,2.678,0,0,1,2.281,1.263l.527-3.3h2.355l-1.817,11.4Z"/>
  </g>
</svg>
