<svg xmlns="http://www.w3.org/2000/svg" width="50" height="50" viewBox="0 0 50 50">
  <g id="Group_318" data-name="Group 318" transform="translate(-2552 138)">
    <rect id="Rectangle_47" data-name="Rectangle 47" width="50" height="50" rx="15" transform="translate(2552 -138)" fill="#fff"/>
    <path id="_2" data-name="2" d="M13.614,20.844l3.717-3.558a19.583,19.583,0,0,0,2.864-3.265,8.87,8.87,0,0,0,1.282-2.8,11.481,11.481,0,0,0,.316-2.659,7.72,7.72,0,0,0-1.339-4.536,8.742,8.742,0,0,0-3.719-2.972A13.356,13.356,0,0,0,11.268,0,13.064,13.064,0,0,0,4.24,1.759,11.3,11.3,0,0,0,0,6.336l6.619,3.48a4.365,4.365,0,0,1,1.636-1.9,4.1,4.1,0,0,1,2.194-.645,2.769,2.769,0,0,1,1.9.567,2.017,2.017,0,0,1,.632,1.583,3.7,3.7,0,0,1-.149,1,4.579,4.579,0,0,1-.576,1.193,10.155,10.155,0,0,1-1.32,1.564L1.525,22.33V28H22.388V20.843H13.614Z" transform="translate(2566 -127)"/>
  </g>
</svg>
