<svg xmlns="http://www.w3.org/2000/svg" width="50" height="50" viewBox="0 0 50 50">
  <g id="Group_319" data-name="Group 319" transform="translate(-2610 138)">
    <rect id="Rectangle_48" data-name="Rectangle 48" width="50" height="50" rx="15" transform="translate(2610 -138)" fill="#fff"/>
    <path id="_3" data-name="3" d="M19.579,12.671a8.531,8.531,0,0,0-3.643-1.87l4.794-5.13V0H1.338V6.961h9.3L6.8,11.067v5.67h3.455a4.34,4.34,0,0,1,2.377.488,1.59,1.59,0,0,1,.705,1.388,1.7,1.7,0,0,1-.947,1.583,4.978,4.978,0,0,1-2.433.528,13.528,13.528,0,0,1-3.473-.488,13.269,13.269,0,0,1-3.511-1.506L0,25.536a17.025,17.025,0,0,0,4.829,1.838A24.412,24.412,0,0,0,10.254,28a14.622,14.622,0,0,0,6.78-1.369,9.244,9.244,0,0,0,3.864-3.52,8.857,8.857,0,0,0,1.245-4.5,7.629,7.629,0,0,0-2.564-5.944Z" transform="translate(2624 -127)"/>
  </g>
</svg>
