<svg xmlns="http://www.w3.org/2000/svg" width="50" height="50" viewBox="0 0 50 50">
  <g id="Group_324" data-name="Group 324" transform="translate(-2726 213)">
    <rect id="Rectangle_277" data-name="Rectangle 277" width="50" height="50" rx="15" transform="translate(2726 -213)" fill="#ffb100"/>
    <path id="_5" data-name="5" d="M22.193,13.981a7.782,7.782,0,0,0-3.559-3.148A15.189,15.189,0,0,0,12.123,9.66H10.708l.209-2.7H21.508V0H3.324L1.955,16.62H9.894a10.566,10.566,0,0,1,2.562.235,2.258,2.258,0,0,1,1.232.685,1.632,1.632,0,0,1,.352,1.037,1.734,1.734,0,0,1-1.016,1.6,5.4,5.4,0,0,1-2.581.547,14.67,14.67,0,0,1-3.637-.489A14.463,14.463,0,0,1,3.13,18.732L0,25.536a18.519,18.519,0,0,0,5.084,1.838A26.987,26.987,0,0,0,10.793,28a15.886,15.886,0,0,0,7.137-1.389A9.547,9.547,0,0,0,22,23.014a8.953,8.953,0,0,0,1.31-4.634,8.794,8.794,0,0,0-1.114-4.4Z" transform="translate(2739 -202)" fill="#fff"/>
  </g>
</svg>
