<svg xmlns="http://www.w3.org/2000/svg" width="880" height="880" viewBox="0 0 880 880"><g transform="translate(-6433 3760)"><rect width="880" height="880" transform="translate(6433 -3760)" fill="none"/><path d="M374.38,573.221l102.209-97.859q52.152-49.476,78.759-89.8,26.592-40.34,35.268-76.9a315.73,315.73,0,0,0,8.692-73.121q0-72.059-36.831-124.752Q525.661,58.128,460.205,29.048,394.734,0,309.878,0,194.319,0,116.591,48.383,38.832,96.781,0,174.228l182.031,95.7q16.368-34.389,44.992-52.162,28.608-17.757,60.344-17.741,34.752,0,52.152,15.586,17.4,15.6,17.384,43.541a101.66,101.66,0,0,1-4.1,27.424c-2.72,9.683-8.035,20.615-15.852,32.8q-11.772,18.319-36.3,43.01L41.928,614.076V770H615.66V573.19H374.38Z" transform="translate(6565 -3705)" fill="#ffb100"/></g></svg>