<svg xmlns="http://www.w3.org/2000/svg" width="880" height="880" viewBox="0 0 880 880"><g transform="translate(-7913 3760)"><rect width="880" height="880" transform="translate(7913 -3760)" fill="none"/><path d="M538.425,348.455q-39.824-35.842-100.17-51.412L570.1,155.955V0H36.795V191.438H292.483L186.971,304.352V460.276h95.016q45.962,0,65.374,13.431,19.4,13.447,19.4,38.169,0,29.048-26.05,43.541-26.05,14.477-66.9,14.524-44.978,0-95.516-13.431a364.9,364.9,0,0,1-96.547-41.417L0,702.252Q57.207,735.61,132.81,752.79A671.321,671.321,0,0,0,281.988,770q114.413,0,186.44-37.638,72.059-37.622,106.261-96.8,34.2-59.127,34.233-123.69,0-100.029-70.5-163.452Z" transform="translate(8049 -3705)" fill="#ffb100"/></g></svg>