<svg xmlns="http://www.w3.org/2000/svg" width="880" height="880" viewBox="0 0 880 880"><g transform="translate(-7593 1515)"><rect width="880" height="880" transform="translate(7593 -1515)" fill="none"/><path d="M610.3,384.469q-30.634-54.288-97.866-86.562-67.217-32.273-179.057-32.258H294.472l5.746-74.2H591.474V0H91.4L53.773,457.041H272.082q46.232,0,70.449,6.464t33.882,18.83a44.877,44.877,0,0,1,9.68,28.51q0,29.041-27.948,44.093-27.964,15.083-70.979,15.052-47.356,0-100.021-13.459A397.745,397.745,0,0,1,86.062,515.124L0,702.237q60.237,33.351,139.8,50.557A742.137,742.137,0,0,0,296.814,770q120.428,0,196.263-38.191,75.835-38.175,111.856-98.928t36.036-127.438q0-66.7-30.634-120.974Z" transform="translate(7713 -1460)" fill="#ffb100"/></g></svg>