<svg xmlns="http://www.w3.org/2000/svg" width="880" height="880" viewBox="0 0 880 880"><g transform="translate(-9390 3760)"><rect width="880" height="880" transform="translate(9390 -3760)" fill="none"/><path d="M623.852,424.977q-21.48-38.908-56.748-63.12a328.63,328.63,0,0,0-77.227-38.923,624.46,624.46,0,0,0-84.356-23.158q-42.444-8.386-77.727-15.765-35.268-7.332-56.748-18.423-21.48-11.045-21.48-29.971c0-8.4,2.876-16.131,8.692-23.158q8.676-10.495,29.14-16.834,20.448-6.324,55.216-6.324,47.04,0,96.643,13.687,49.572,13.7,102.772,41.031l72.6-179.89Q558.349,31.545,487.813,15.734A656.365,656.365,0,0,0,344.646,0Q234.2,0,160.051,33.668,85.9,67.352,48.587,123.613,11.256,179.89,11.256,248.265q0,58.935,21.48,98.347,21.48,39.458,56.748,63.64a324.476,324.476,0,0,0,77.727,38.923,703.023,703.023,0,0,0,84.356,23.678q41.928,8.936,77.227,16.834,35.268,7.882,56.748,19.462,21.48,11.594,21.48,31.56a29.019,29.019,0,0,1-9.192,21.57q-9.192,8.936-29.14,13.687-19.932,4.72-54.716,4.736-59.327,0-122.219-18.423Q128.863,543.9,77.727,513.364L0,694.262q54.215,33.684,138.071,54.688A711.805,711.805,0,0,0,311.942,770q111.479,0,185.1-34.188Q570.668,701.625,608,645.348t37.332-123.613q0-57.835-21.48-96.788Z" transform="translate(9507 -3705)" fill="#ffb100"/></g></svg>