<svg xmlns="http://www.w3.org/2000/svg" width="50" height="50" viewBox="0 0 50 50">
  <g id="Group_322" data-name="Group 322" transform="translate(-2783 138)">
    <rect id="Rectangle_49" data-name="Rectangle 49" width="50" height="50" rx="15" transform="translate(2783 -138)" fill="#fff"/>
    <path id="S" d="M22.686,15.454a6.611,6.611,0,0,0-2.064-2.3,11.95,11.95,0,0,0-2.808-1.415,22.708,22.708,0,0,0-3.067-.842q-1.543-.3-2.826-.573a8.263,8.263,0,0,1-2.064-.67,1.215,1.215,0,0,1-.781-1.09,1.291,1.291,0,0,1,.316-.842,2.181,2.181,0,0,1,1.06-.612,7.031,7.031,0,0,1,2.008-.23,13.216,13.216,0,0,1,3.514.5A19.65,19.65,0,0,1,19.71,8.873l2.64-6.541A16.177,16.177,0,0,0,17.739.572,23.868,23.868,0,0,0,12.533,0,16.227,16.227,0,0,0,5.82,1.224,9.32,9.32,0,0,0,1.767,4.5,8.025,8.025,0,0,0,.409,9.028,7.4,7.4,0,0,0,1.19,12.6a6.557,6.557,0,0,0,2.064,2.314A11.8,11.8,0,0,0,6.08,16.334a25.564,25.564,0,0,0,3.067.861q1.525.325,2.808.612a8.2,8.2,0,0,1,2.064.708,1.277,1.277,0,0,1,.781,1.148,1.055,1.055,0,0,1-.334.784,2.264,2.264,0,0,1-1.06.5,9.041,9.041,0,0,1-1.99.172,15.776,15.776,0,0,1-4.444-.67,17.775,17.775,0,0,1-4.146-1.779L0,25.246a17.683,17.683,0,0,0,5.021,1.989A25.884,25.884,0,0,0,11.343,28a15.987,15.987,0,0,0,6.731-1.243,9.463,9.463,0,0,0,4.035-3.29,7.962,7.962,0,0,0,1.358-4.5,7.212,7.212,0,0,0-.781-3.52Z" transform="translate(2796 -127)"/>
  </g>
</svg>
