<svg id="drag_left_drag_left_arrow_hand_touch_gesture" data-name="drag left, drag, left, arrow, hand, touch, gesture" xmlns="http://www.w3.org/2000/svg" width="133.529" height="130.002" viewBox="0 0 133.529 130.002">
  <path id="Path_220" data-name="Path 220" d="M41.013,116.835l-29.731-29.5A17.007,17.007,0,0,1,33.653,61.8V20.438A16.98,16.98,0,0,1,48.409,3.508l.219-.024A16.145,16.145,0,0,1,61.643,8.259a16.043,16.043,0,0,1,4.9,11.609V47.93l24,3.456a16.524,16.524,0,0,1,14.113,16.271,104.6,104.6,0,0,1-11.027,46.71l-.515,1.029-9.805-4.9.517-1.033a93.593,93.593,0,0,0,9.867-41.8,5.509,5.509,0,0,0-4.706-5.426l-33.4-4.81V19.81a5.04,5.04,0,0,0-1.564-3.677l-.159-.158a5.228,5.228,0,0,0-4.132-1.581,6,6,0,0,0-5.107,5.982V87.558L27.556,71.006a6.036,6.036,0,0,0-4.288-1.769h-.032a6,6,0,0,0-6,6v.032a6.034,6.034,0,0,0,1.769,4.288l29.728,29.5Z" transform="translate(28.877 13.167)"/>
  <path id="Path_221" data-name="Path 221" d="M54.178,63.615l-4.272-10.1a20.473,20.473,0,0,0,6.662-4.532l.035-.035a21.954,21.954,0,1,0-31.048,0l.035.035a20.473,20.473,0,0,0,6.662,4.532l-4.272,10.1a31.381,31.381,0,0,1-10.2-6.931,32.916,32.916,0,1,1,46.59,0A31.381,31.381,0,0,1,54.178,63.615Z" transform="translate(37.894 -0.528)"/>
  <path id="Path_222" data-name="Path 222" d="M20.428,43.367.151,23.019,20.435,2.735l7.752,7.752L15.641,23.032l12.553,12.6Z" transform="translate(-0.151 9.932)"/>
  <path id="Line_2" data-name="Line 2" d="M43.851,10.008H0V-.955H43.851Z" transform="translate(7.745 28.432)"/>
</svg>
