<svg xmlns="http://www.w3.org/2000/svg" width="91.002" height="54" viewBox="0 0 91.002 54">
  <g id="Group_242" data-name="Group 242" transform="translate(-1195.93 -509.652)">
    <path id="Path_244" data-name="Path 244" d="M1229.587,563.571c-10.842-.948-20.417-4.969-26.645-11.2a23.264,23.264,0,0,1-6.68-11.938,21.544,21.544,0,0,1,.007-7.576c1.356-6.309,5.429-11.827,11.849-16.04,14.641-9.6,37.072-9.553,51.58.111a29.89,29.89,0,0,1,4.917,4.021,27.306,27.306,0,0,1,5.377,7.5,1.139,1.139,0,0,0,.666.326,8.272,8.272,0,0,1,3.5,2.044,21.456,21.456,0,0,1,3.155,4.147c1.651,2.495,9.116,14.018,9.568,14.774.177.3-.171.763-.563.763-.282,0-.474-.186-.889-.837-.289-.459-2.192-3.414-4.228-6.569-7.206-11.153-7.591-11.671-9.6-12.678l-1.052-.526h-3.095c-3.1,0-3.1,0-3.17.326-.407,1.785-.488,2.221-.4,2.3.06.052,1.815,1.051,3.9,2.222l3.8,2.125-.237.5c-.133.274-.281.5-.333.5s-3.251-1.77-7.109-3.939-7.243-4-7.517-4.073a2.542,2.542,0,0,0-2.784,2.006c0,1.111.325,1.43,7.109,6.984,4.228,3.466,6.65,5.547,7.02,6.035a16.291,16.291,0,0,1,1.978,3.836,7.779,7.779,0,0,0,5.835,5.192l.97.244-.081.526a2.227,2.227,0,0,1-.141.592,10.229,10.229,0,0,1-3.2-1.022,9.127,9.127,0,0,1-4.169-4.154c-.008-.015-.7.222-1.533.526a5.78,5.78,0,0,0-2.955,1.955c-5.976,5.835-14.552,9.56-24.9,10.827a82.429,82.429,0,0,1-9.96.17Zm10.3-1.792a47.151,47.151,0,0,0,12.286-3.148,35.135,35.135,0,0,0,10.531-6.568l1.051-1L1261.1,549.8c-2.829-1.356-3.11-1.578-3.473-2.785a2.4,2.4,0,0,1,.755-2.355l.563-.614-1.229-.934c-.97-.74-1.274-1.059-1.467-1.547a2.471,2.471,0,0,1,.3-2.34l.37-.526-3.881-.682c-2.132-.377-4.125-.755-4.421-.844a2.186,2.186,0,0,1-1.325-1.481c-.082-.348,1.821-9.635,2.243-10.96a2.529,2.529,0,0,1,1.615-1.422,120.184,120.184,0,0,1,12.649,2.222c.9.525,1.184,1.37.9,2.673l-.118.541h.629c.348,0,1.17-.045,1.829-.1l1.2-.1-.593-1.1a27.721,27.721,0,0,0-9.042-9.354,48.831,48.831,0,0,0-8.272-4.073,51.4,51.4,0,0,0-11.538-2.554,72.716,72.716,0,0,0-10.012.007,48.128,48.128,0,0,0-13.708,3.414c-9.331,3.977-15.6,10.568-17.21,18.077a19.174,19.174,0,0,0,5.65,17.721c6.147,6.473,15.537,10.457,26.794,11.353,1.51.119,8.042-.059,9.575-.259Zm-2.051-7.065a2.131,2.131,0,0,1-1.3-1.518c-.082-.43.015-.726.629-1.918a30.067,30.067,0,0,0,3.57-14.611,29.593,29.593,0,0,0-3.333-14.078,14.171,14.171,0,0,1-.925-2.148,2.166,2.166,0,0,1,.9-1.555,2.042,2.042,0,0,1,2.229.155,10.4,10.4,0,0,1,1.14,1.874,35.577,35.577,0,0,1,3.444,10.82,42.229,42.229,0,0,1,.14,9,35.27,35.27,0,0,1-3.265,11.027c-1.022,2.1-1.659,2.97-2.192,2.97a1.718,1.718,0,0,0-.386.059,1.616,1.616,0,0,1-.651-.074Zm-6.924-3.621a1.9,1.9,0,0,1-1.274-2.17c.059-.2.481-1.111.933-2.029a22.7,22.7,0,0,0,2.31-12.138,21.822,21.822,0,0,0-2.436-8.576c-1.015-2.081-1.066-2.4-.474-3.243a1.934,1.934,0,0,1,2.7-.252,24.954,24.954,0,0,1,2.718,5.673,26.97,26.97,0,0,1-.881,19.017c-1.341,3.133-2.281,4.1-3.6,3.718Zm-7.139-3.674a2.173,2.173,0,0,1-1.156-1.414c-.081-.355.06-.755.711-2.074a15.225,15.225,0,0,0,.082-14.277c-1.03-2.081-1.052-2.5-.185-3.318a1.366,1.366,0,0,1,1.214-.474c1.015,0,1.54.511,2.444,2.37a18,18,0,0,1,1.955,8.516,17.421,17.421,0,0,1-2.022,8.524c-.851,1.725-1.274,2.185-2.125,2.3a2.165,2.165,0,0,1-.918-.149ZM1217.109,544a2.224,2.224,0,0,1-1.082-1.288c-.163-.578-.029-1.037.622-2.111a7.975,7.975,0,0,0,0-7.865,7.316,7.316,0,0,1-.636-1.251,1.906,1.906,0,0,1,1.51-2.222c.867-.163,1.459.222,2.259,1.466a11.229,11.229,0,0,1,0,11.968c-.815,1.251-1.718,1.7-2.673,1.3Zm49.639,5.584a14.528,14.528,0,0,0,1.481-.578,3.4,3.4,0,0,0-.333-1.1c-.459-1.148-.385-1.118-2.029-.807-1.77.341-2.8.037-4.74-1.392a4.342,4.342,0,0,0-1.207-.711,1.383,1.383,0,0,0-.674.452,1.47,1.47,0,0,0-.17,1.858,29.332,29.332,0,0,0,5.8,2.763,8.452,8.452,0,0,0,1.874-.489Zm-.77-3.725c.718-.148.8-.193.674-.43-.141-.259-6.873-5.843-7.458-6.191a.912.912,0,0,0-1.273.215c-1.17,1.252-1.03,1.518,2,3.836,3.658,2.807,4.051,2.97,6.058,2.57Zm-9.035-8.465c0-.037-.763-.7-1.7-1.459-2.3-1.895-2.8-2.606-2.8-4.013a3.475,3.475,0,0,1,2.044-2.955,3.651,3.651,0,0,1,2.37-.215c.444.148,2.458,1.237,5.243,2.836l.585.341.481-2.3c.5-2.347.5-2.969.045-3.11-.141-.044-2.829-.533-5.969-1.089-5.584-.985-6.2-1.044-6.458-.622-.141.222-2.266,10.072-2.266,10.487a.841.841,0,0,0,.237.577,30.318,30.318,0,0,0,4.029.874c4.028.726,4.154.748,4.154.644Z"/>
  </g>
</svg>
