<svg xmlns="http://www.w3.org/2000/svg" width="119.999" height="115.119" viewBox="0 0 119.999 115.119"><g transform="translate(-0.824 -0.149)"><path d="M31.265,28.02,24.68,34.605V6.27H14.534V34.576l-6.526-6.55L.824,35.189,19.6,54.032,38.439,35.194Z" transform="translate(0 26.39)"/><path d="M18.352,19.569V47.906H28.5V19.57L35.029,26.1,42.2,18.927,23.425.149,4.645,18.927,11.818,26.1Z" transform="translate(16.474 0)"/><path d="M97.318,62.863A15.29,15.29,0,0,0,84.257,47.8l-22.208-3.2V18.643A14.734,14.734,0,0,0,57.592,7.966,14.99,14.99,0,0,0,45.269,3.493,15.7,15.7,0,0,0,31.612,19.147V57.44A15.742,15.742,0,0,0,10.907,81.071l20.259,20.1H45.571L18.062,73.879A5.6,5.6,0,0,1,22,64.324a5.928,5.928,0,0,1,4.037,1.7L41.758,81.284V19.1a5.516,5.516,0,0,1,4.627-5.53,5.013,5.013,0,0,1,4.074,1.6A4.68,4.68,0,0,1,51.9,18.616V53.392l30.92,4.457a5.1,5.1,0,0,1,4.35,5.02,86.646,86.646,0,0,1-8.972,38.3H89.4A96.875,96.875,0,0,0,97.318,62.863Z" transform="translate(23.504 14.097)"/></g></svg>