<?xml version="1.0" encoding="utf-8"?>
<!-- Generator: Adobe Illustrator 26.5.0, SVG Export Plug-In . SVG Version: 6.00 Build 0)  -->
<svg version="1.1" id="Layer_1" xmlns="http://www.w3.org/2000/svg" xmlns:xlink="http://www.w3.org/1999/xlink" x="0px" y="0px"
	 viewBox="0 0 144 144" style="enable-background:new 0 0 144 144;" xml:space="preserve">
<style type="text/css">
	.st0{fill:#FFB100;}
</style>
<path class="st0" d="M114,0H30C13.4,0,0,13.4,0,30v84c0,16.6,13.4,30,30,30h84c16.6,0,30-13.4,30-30V30C144,13.4,130.6,0,114,0z
	 M142,114C142,114,142,114,142,114c0,15.5-12.5,28-28,28H30c0,0,0,0-0.1,0C14.5,142,2,129.5,2,114V30c0,0,0,0,0-0.1
	C2,14.5,14.5,2,30,2h84c0,0,0,0,0.1,0c15.5,0,28,12.5,27.9,28V114z"/>
</svg>
