<svg xmlns="http://www.w3.org/2000/svg" width="86.666" height="60" viewBox="0 0 86.666 60">
  <g id="Group_243" data-name="Group 243" transform="translate(-663.451 -506.652)">
    <path id="Path_245" data-name="Path 245" d="M731.844,540.347h5.063l-1.743-8.693Z"/>
    <path id="Path_246" data-name="Path 246" d="M743.451,506.652H670.117a6.664,6.664,0,0,0-6.666,6.667v46.666a6.664,6.664,0,0,0,6.666,6.667h73.334a6.664,6.664,0,0,0,6.666-6.667V513.319A6.664,6.664,0,0,0,743.451,506.652Zm-73.89,18.418h9.446a3.787,3.787,0,0,1,3.344,2.267l2.056,10.44C681.6,528.747,669.561,525.07,669.561,525.07Zm11.683,22.957v0l-4.9-18.633s5.163,2.613,8.346,9.747c.137.866.457,2.263.457,2.263l5.587-16.39h6.533l-9.293,23.01Zm20.92,0h-6.107l3.62-23.013h6.18Zm10.383.72a13.944,13.944,0,0,1-6.636-1.336l1.056-4.877a12.684,12.684,0,0,0,5.864,1.343c3.526,0,4.02-1.48,4.02-2.116,0-3.737-8.467-2.744-8.467-10.014,0-4.02,3.317-7.2,9.737-7.2a18.188,18.188,0,0,1,5.723,1.13l-.99,5.083a9.418,9.418,0,0,0-4.237-1.487c-3.036,0-4.1.994-4.1,2.327,0,2.61,8.473,3.03,8.473,8.887C722.994,545.364,716.921,548.75,712.547,548.75Zm25.9-.723-.657-3.283h-7.643l-1.257,3.283h-6.063l10.023-23.01h6.423l4.73,23.01Z"/>
  </g>
</svg>
